<svg xmlns="http://www.w3.org/2000/svg" xmlns:xlink="http://www.w3.org/1999/xlink" zoomAndPan="magnify" preserveAspectRatio="xMidYMid meet" version="1.0" viewBox="61.11 135.05 252.75 105"><defs><g/><clipPath id="e80a8ab0ee"><path d="M 61.113281 207 L 189 207 L 189 240 L 61.113281 240 Z M 61.113281 207 " clip-rule="nonzero"/></clipPath><clipPath id="4469fb4c01"><path d="M 61.113281 135.050781 L 210 135.050781 L 210 168 L 61.113281 168 Z M 61.113281 135.050781 " clip-rule="nonzero"/></clipPath><clipPath id="ecfbfc5f77"><path d="M 182 207 L 313.863281 207 L 313.863281 240.050781 L 182 240.050781 Z M 182 207 " clip-rule="nonzero"/></clipPath><clipPath id="b8fe76de3e"><path d="M 186 135.050781 L 313.863281 135.050781 L 313.863281 168 L 186 168 Z M 186 135.050781 " clip-rule="nonzero"/></clipPath></defs><g clip-path="url(#e80a8ab0ee)"><path fill="#8ddfff" d="M 146.046875 210.597656 C 146.375 211.359375 146.710938 212.121094 147.042969 212.882812 C 148.03125 215.074219 148.902344 217.257812 149.988281 219.460938 L 152.957031 225.144531 L 152.949219 225.214844 L 153.335938 225.886719 C 154.5 227.917969 155.683594 229.941406 157.042969 231.910156 C 157.722656 232.894531 158.476562 233.851562 159.234375 234.808594 C 160.070312 235.738281 160.875 236.679688 161.9375 237.519531 C 162.394531 237.960938 163.054688 238.339844 163.648438 238.726562 C 164.132812 239.085938 165.449219 239.550781 166.082031 239.667969 L 166.714844 239.738281 L 166.816406 239.746094 L 166.871094 239.753906 C 167.511719 239.800781 167.058594 239.765625 167.207031 239.777344 L 167.222656 239.773438 L 167.253906 239.769531 L 168.304688 239.621094 C 168.992188 239.488281 169.703125 239.484375 170.34375 239.164062 C 170.992188 238.890625 171.671875 238.679688 172.261719 238.324219 L 173.957031 237.15625 L 175.363281 235.734375 C 175.789062 235.238281 176.136719 234.691406 176.519531 234.171875 C 177.191406 233.078125 177.742188 231.941406 178.164062 230.660156 C 178.40625 230.023438 178.457031 229.539062 178.613281 228.960938 C 178.777344 228.238281 178.824219 227.808594 178.9375 227.214844 C 179.332031 225 179.789062 222.824219 180.355469 220.691406 C 180.945312 218.574219 181.667969 216.472656 182.902344 214.703125 C 183.496094 213.796875 184.273438 213.042969 185.175781 212.433594 C 186.097656 211.839844 187.179688 211.550781 188.316406 211.410156 C 187.203125 211.363281 186.015625 211.460938 184.921875 211.933594 C 183.851562 212.414062 182.847656 213.117188 182.039062 213.992188 C 180.414062 215.746094 179.347656 217.886719 178.421875 220.015625 C 177.5 222.15625 176.828125 224.367188 176.164062 226.550781 C 176.007812 227.058594 175.832031 227.738281 175.695312 228.097656 C 175.492188 228.601562 175.332031 229.238281 175.097656 229.625 C 174.703125 230.453125 174.160156 231.316406 173.558594 232.089844 C 173.234375 232.449219 172.945312 232.84375 172.605469 233.171875 L 171.539062 234.070312 L 170.371094 234.71875 C 169.976562 234.914062 169.539062 234.972656 169.140625 235.117188 C 168.75 235.308594 168.285156 235.214844 167.867188 235.269531 L 167.335938 235.3125 L 167.144531 235.273438 L 166.730469 235.1875 C 166.421875 235.136719 166.539062 235.019531 166.421875 234.976562 C 166.371094 234.933594 166.289062 234.917969 166.097656 234.742188 C 165.773438 234.46875 165.441406 234.28125 165.117188 233.890625 C 164.457031 233.261719 163.832031 232.441406 163.203125 231.652344 C 162.613281 230.792969 162.015625 229.933594 161.46875 229.019531 C 160.367188 227.183594 159.390625 225.234375 158.425781 223.273438 L 158.429688 223.300781 L 158.355469 223.132812 L 155.570312 216.910156 C 154.640625 214.828125 153.832031 212.578125 152.960938 210.417969 C 152.628906 209.613281 152.316406 208.792969 152 207.976562 L 61.210938 207.976562 Z M 146.046875 210.597656 " fill-opacity="1" fill-rule="nonzero"/></g><g clip-path="url(#4469fb4c01)"><path fill="#008cce" d="M 61.210938 167.222656 L 143.042969 167.222656 L 143.40625 164.28125 L 144.054688 161.082031 L 144.964844 157.964844 C 145.71875 155.953125 146.507812 153.9375 147.566406 152.097656 C 148.601562 150.265625 149.8125 148.457031 151.175781 147.128906 C 152.007812 146.347656 152.894531 145.355469 153.671875 144.746094 C 154.480469 144.195312 155.136719 143.453125 156.042969 143.015625 L 157.324219 142.246094 C 157.757812 142.046875 158.199219 141.898438 158.636719 141.707031 C 159.070312 141.484375 159.511719 141.378906 159.953125 141.289062 C 160.394531 141.191406 160.839844 141.023438 161.28125 141.046875 C 163.046875 140.84375 164.835938 141.226562 166.527344 142.136719 C 168.25 143.089844 169.710938 144.320312 171.152344 146.136719 L 171.035156 145.984375 L 172.828125 148.109375 C 173.4375 148.808594 173.996094 149.53125 174.644531 150.195312 L 176.722656 152.085938 C 177.398438 152.71875 178.089844 153.34375 178.910156 153.839844 L 181.257812 155.402344 C 182.085938 155.847656 182.96875 156.222656 183.828125 156.613281 C 184.664062 157.042969 185.589844 157.277344 186.511719 157.507812 C 187.425781 157.742188 188.324219 158.019531 189.273438 158.054688 C 190.210938 158.109375 191.132812 158.316406 192.066406 158.230469 C 193 158.164062 193.929688 158.175781 194.839844 158.035156 C 195.746094 157.859375 196.648438 157.703125 197.53125 157.472656 C 198.394531 157.179688 199.269531 156.933594 200.105469 156.605469 C 201.773438 155.90625 203.390625 155.140625 204.867188 154.140625 C 206.363281 153.1875 207.757812 152.089844 209.019531 150.875 C 206.125 152.84375 202.882812 154.199219 199.609375 155.050781 C 198.789062 155.246094 197.949219 155.359375 197.128906 155.519531 C 196.300781 155.621094 195.464844 155.625 194.644531 155.699219 C 193.820312 155.738281 192.996094 155.621094 192.183594 155.59375 C 191.367188 155.585938 190.582031 155.292969 189.789062 155.160156 C 188.988281 155.050781 188.246094 154.710938 187.496094 154.421875 C 186.746094 154.140625 185.996094 153.871094 185.324219 153.40625 C 184.640625 152.984375 183.925781 152.632812 183.261719 152.191406 L 181.378906 150.664062 C 180.726562 150.203125 180.175781 149.597656 179.628906 148.984375 L 177.980469 147.191406 C 177.464844 146.558594 177.019531 145.847656 176.535156 145.183594 L 175.113281 143.175781 L 174.996094 143.019531 C 173.628906 141.035156 171.605469 138.929688 169.253906 137.46875 C 166.894531 135.964844 163.910156 135.058594 160.953125 135.1875 C 158.027344 135.328125 155.167969 136.226562 152.878906 137.652344 C 151.636719 138.238281 150.59375 139.199219 149.449219 139.988281 C 148.359375 140.824219 147.644531 141.59375 146.71875 142.398438 C 144.625 144.3125 143.113281 146.445312 141.730469 148.664062 C 140.320312 150.871094 139.324219 153.265625 138.410156 155.675781 C 138.011719 156.894531 137.632812 158.125 137.28125 159.355469 C 137.007812 160.605469 136.707031 161.851562 136.46875 163.105469 L 136.261719 164.601562 Z M 61.210938 167.222656 " fill-opacity="1" fill-rule="nonzero"/></g><g clip-path="url(#ecfbfc5f77)"><path fill="#008cce" d="M 313.773438 207.972656 L 222.628906 207.972656 C 221.140625 212.09375 219.621094 216.191406 217.855469 220.140625 C 216.796875 222.550781 215.625 224.898438 214.414062 227.171875 C 213.191406 229.421875 211.820312 231.613281 210.269531 233.304688 C 209.527344 234.132812 208.628906 234.820312 208.113281 235 C 208.015625 235.042969 207.878906 235.0625 207.925781 235.074219 L 206.929688 235.0625 C 206.734375 235.027344 206.539062 235.011719 206.332031 234.996094 L 205.609375 234.828125 C 203.707031 234.277344 201.957031 232.675781 200.761719 230.640625 C 200.148438 229.589844 199.734375 228.605469 199.378906 227.316406 L 198.285156 223.402344 C 197.546875 220.785156 196.8125 218.132812 195.777344 215.539062 C 194.707031 213.019531 193.476562 210.234375 190.875 208.609375 C 190.300781 208.273438 189.675781 208.078125 189.039062 207.976562 L 187.199219 207.976562 C 187.003906 208.007812 186.804688 208.023438 186.621094 208.074219 C 185.242188 208.398438 184.03125 209.082031 182.910156 209.835938 C 185.261719 208.636719 188.289062 207.972656 190.238281 209.589844 C 192.164062 211.117188 193.042969 213.738281 193.746094 216.226562 C 194.433594 218.769531 194.925781 221.40625 195.386719 224.0625 L 196.085938 228.078125 C 196.296875 229.429688 196.710938 231.050781 197.363281 232.394531 C 198.628906 235.140625 200.769531 237.824219 203.992188 239.179688 L 205.210938 239.605469 C 205.664062 239.71875 206.136719 239.8125 206.605469 239.898438 L 207.636719 240.015625 C 208.359375 240.058594 208.898438 239.96875 209.453125 239.839844 C 211.554688 239.242188 212.816406 238.136719 213.992188 237.09375 C 216.265625 234.9375 217.933594 232.585938 219.480469 230.199219 C 221.027344 227.8125 222.332031 225.332031 223.578125 222.847656 C 225.554688 218.816406 227.363281 214.738281 228.988281 210.605469 Z M 313.773438 207.972656 " fill-opacity="1" fill-rule="nonzero"/></g><g clip-path="url(#b8fe76de3e)"><path fill="#8ddfff" d="M 238.730469 164.601562 C 238.375 162.433594 237.859375 160.246094 237.179688 158.277344 L 237.085938 158.007812 C 236.402344 156.414062 235.722656 154.8125 234.941406 153.246094 C 234.171875 151.675781 233.359375 150.113281 232.414062 148.605469 C 231.96875 147.84375 231.445312 147.113281 230.941406 146.375 C 230.457031 145.628906 229.859375 144.929688 229.324219 144.210938 C 228.15625 142.816406 226.941406 141.445312 225.496094 140.242188 C 222.710938 137.808594 219.019531 135.882812 215.035156 135.746094 C 213.070312 135.640625 211.121094 135.96875 209.324219 136.582031 C 208.429688 136.902344 207.566406 137.28125 206.742188 137.738281 C 205.933594 138.175781 205.109375 138.734375 204.4375 139.300781 L 204.316406 139.394531 C 202.976562 140.652344 201.648438 141.925781 200.253906 143.113281 C 198.863281 144.316406 197.429688 145.457031 195.964844 146.558594 C 195.230469 147.097656 194.476562 147.621094 193.703125 148.109375 C 192.933594 148.605469 192.140625 149.046875 191.332031 149.472656 C 190.515625 149.875 189.679688 150.257812 188.800781 150.507812 C 187.933594 150.753906 187 150.953125 186.09375 150.707031 C 186.949219 151.121094 187.960938 151.105469 188.902344 151.019531 C 189.855469 150.929688 190.792969 150.699219 191.714844 150.441406 C 193.554688 149.886719 195.277344 149.050781 196.980469 148.195312 C 200.359375 146.425781 203.476562 144.238281 206.527344 141.992188 L 206.40625 142.085938 C 207.074219 141.652344 207.691406 141.363281 208.382812 141.058594 C 209.058594 140.769531 209.753906 140.546875 210.453125 140.375 C 211.859375 140.050781 213.28125 139.96875 214.640625 140.1875 C 217.371094 140.597656 219.835938 142.109375 221.921875 144.175781 C 222.984375 145.1875 223.910156 146.40625 224.800781 147.636719 C 225.210938 148.292969 225.671875 148.898438 226.046875 149.585938 C 226.433594 150.261719 226.84375 150.917969 227.1875 151.628906 C 227.929688 153.003906 228.625 154.429688 229.253906 155.890625 C 229.882812 157.296875 230.429688 158.753906 230.976562 160.207031 C 231.671875 162.59375 232.011719 164.824219 232.199219 167.222656 L 313.773438 167.222656 Z M 238.730469 164.601562 " fill-opacity="1" fill-rule="nonzero"/></g><g fill="#008cce" fill-opacity="1"><g transform="translate(111.703768, 196.387049)"><g><path d="M 7.6875 -16.046875 C 10.050781 -16.046875 12.132812 -15.453125 13.9375 -14.265625 L 12.421875 -11.125 C 11.585938 -11.601562 10.691406 -12 9.734375 -12.3125 C 8.785156 -12.625 7.988281 -12.78125 7.34375 -12.78125 C 6.175781 -12.78125 5.59375 -12.394531 5.59375 -11.625 C 5.59375 -11.125 5.878906 -10.722656 6.453125 -10.421875 C 7.023438 -10.117188 7.722656 -9.859375 8.546875 -9.640625 C 9.367188 -9.421875 10.191406 -9.15625 11.015625 -8.84375 C 11.835938 -8.53125 12.535156 -8.023438 13.109375 -7.328125 C 13.691406 -6.640625 13.984375 -5.769531 13.984375 -4.71875 C 13.984375 -3.1875 13.382812 -1.992188 12.1875 -1.140625 C 11 -0.285156 9.484375 0.140625 7.640625 0.140625 C 6.316406 0.140625 5.015625 -0.0820312 3.734375 -0.53125 C 2.453125 -0.988281 1.335938 -1.613281 0.390625 -2.40625 L 1.953125 -5.5 C 2.753906 -4.8125 3.695312 -4.242188 4.78125 -3.796875 C 5.863281 -3.347656 6.832031 -3.125 7.6875 -3.125 C 8.332031 -3.125 8.832031 -3.238281 9.1875 -3.46875 C 9.550781 -3.707031 9.734375 -4.054688 9.734375 -4.515625 C 9.734375 -4.953125 9.523438 -5.316406 9.109375 -5.609375 C 8.703125 -5.898438 8.1875 -6.117188 7.5625 -6.265625 C 6.945312 -6.410156 6.273438 -6.601562 5.546875 -6.84375 C 4.828125 -7.082031 4.15625 -7.34375 3.53125 -7.625 C 2.914062 -7.914062 2.398438 -8.375 1.984375 -9 C 1.566406 -9.632812 1.359375 -10.390625 1.359375 -11.265625 C 1.359375 -12.710938 1.9375 -13.867188 3.09375 -14.734375 C 4.25 -15.609375 5.78125 -16.046875 7.6875 -16.046875 Z M 7.6875 -16.046875 "/></g></g></g><g fill="#008cce" fill-opacity="1"><g transform="translate(128.586284, 196.387049)"><g><path d="M 19.015625 0 L 15.453125 0 L 15.421875 -10.3125 L 11.625 -1.578125 L 9 -1.578125 L 5.1875 -10.3125 L 5.1875 0 L 1.578125 0 L 1.578125 -15.875 L 6 -15.875 L 10.3125 -6.4375 L 14.609375 -15.875 L 19.015625 -15.875 Z M 19.015625 0 "/></g></g></g><g fill="#008cce" fill-opacity="1"><g transform="translate(151.496515, 196.387049)"><g><path d="M 5.625 0 L 1.578125 0 L 1.578125 -15.859375 L 5.625 -15.859375 Z M 5.625 0 "/></g></g></g><g fill="#008cce" fill-opacity="1"><g transform="translate(160.991696, 196.387049)"><g><path d="M 5.625 -3.375 L 12.34375 -3.375 L 12.34375 0 L 1.578125 0 L 1.578125 -15.859375 L 5.625 -15.859375 Z M 5.625 -3.375 "/></g></g></g><g fill="#008cce" fill-opacity="1"><g transform="translate(175.970724, 196.387049)"><g><path d="M 14 -12.6875 L 5.625 -12.6875 L 5.625 -9.53125 L 13.1875 -9.53125 L 13.1875 -6.359375 L 5.625 -6.359375 L 5.625 -3.171875 L 14.25 -3.171875 L 14.25 0 L 1.578125 0 L 1.578125 -15.859375 L 14 -15.859375 Z M 14 -12.6875 "/></g></g></g><g fill="#008cce" fill-opacity="1"><g transform="translate(193.533063, 196.387049)"><g/></g></g><g fill="#008cce" fill-opacity="1"><g transform="translate(201.079434, 196.387049)"><g><path d="M 1.578125 -15.859375 L 8.5 -15.859375 C 10.519531 -15.859375 12.085938 -15.378906 13.203125 -14.421875 C 14.328125 -13.460938 14.890625 -12.097656 14.890625 -10.328125 C 14.890625 -8.472656 14.328125 -7.03125 13.203125 -6 C 12.085938 -4.976562 10.519531 -4.46875 8.5 -4.46875 L 5.625 -4.46875 L 5.625 0 L 1.578125 0 Z M 5.625 -12.6875 L 5.625 -7.640625 L 8.296875 -7.640625 C 9.179688 -7.640625 9.863281 -7.859375 10.34375 -8.296875 C 10.832031 -8.734375 11.078125 -9.363281 11.078125 -10.1875 C 11.078125 -11.007812 10.832031 -11.628906 10.34375 -12.046875 C 9.863281 -12.472656 9.179688 -12.6875 8.296875 -12.6875 Z M 5.625 -12.6875 "/></g></g></g><g fill="#008cce" fill-opacity="1"><g transform="translate(218.777739, 196.387049)"><g><path d="M 11.140625 0 L 8.796875 -4.46875 L 5.625 -4.46875 L 5.625 0 L 1.578125 0 L 1.578125 -15.859375 L 8.671875 -15.859375 C 10.773438 -15.859375 12.398438 -15.378906 13.546875 -14.421875 C 14.691406 -13.460938 15.265625 -12.097656 15.265625 -10.328125 C 15.265625 -7.878906 14.304688 -6.179688 12.390625 -5.234375 L 15.71875 0 Z M 5.625 -7.640625 L 8.671875 -7.640625 C 9.546875 -7.640625 10.222656 -7.859375 10.703125 -8.296875 C 11.191406 -8.734375 11.4375 -9.363281 11.4375 -10.1875 C 11.4375 -11.007812 11.191406 -11.628906 10.703125 -12.046875 C 10.222656 -12.472656 9.546875 -12.6875 8.671875 -12.6875 L 5.625 -12.6875 Z M 5.625 -7.640625 "/></g></g></g><g fill="#008cce" fill-opacity="1"><g transform="translate(237.473102, 196.387049)"><g><path d="M 9.109375 -16 C 11.566406 -16 13.609375 -15.226562 15.234375 -13.6875 C 16.867188 -12.15625 17.6875 -10.242188 17.6875 -7.953125 C 17.6875 -5.640625 16.867188 -3.703125 15.234375 -2.140625 C 13.597656 -0.585938 11.554688 0.1875 9.109375 0.1875 C 6.660156 0.1875 4.617188 -0.585938 2.984375 -2.140625 C 1.359375 -3.691406 0.546875 -5.628906 0.546875 -7.953125 C 0.546875 -10.265625 1.359375 -12.179688 2.984375 -13.703125 C 4.617188 -15.234375 6.660156 -16 9.109375 -16 Z M 9.15625 -12.625 C 7.914062 -12.625 6.859375 -12.171875 5.984375 -11.265625 C 5.109375 -10.367188 4.671875 -9.253906 4.671875 -7.921875 C 4.671875 -6.597656 5.109375 -5.476562 5.984375 -4.5625 C 6.867188 -3.644531 7.921875 -3.1875 9.140625 -3.1875 C 10.367188 -3.1875 11.410156 -3.644531 12.265625 -4.5625 C 13.117188 -5.476562 13.546875 -6.597656 13.546875 -7.921875 C 13.546875 -9.253906 13.117188 -10.367188 12.265625 -11.265625 C 11.410156 -12.171875 10.375 -12.625 9.15625 -12.625 Z M 9.15625 -12.625 "/></g></g></g><g fill="#008cce" fill-opacity="1"><g transform="translate(258.013537, 196.387049)"><g/></g></g></svg>